<mxfile host="Electron" modified="2023-12-09T22:55:18.948Z" agent="Mozilla/5.0 (Macintosh; Intel Mac OS X 10_15_7) AppleWebKit/537.36 (KHTML, like Gecko) draw.io/21.2.8 Chrome/112.0.5615.165 Electron/24.2.0 Safari/537.36" etag="psgmEKDmLYcPtkMjIEvn" version="21.2.8" type="device">
  <diagram name="runtime-detection" id="y_w9HfS7oekg3l8_9jv-">
    <mxGraphModel dx="1284" dy="1459" grid="1" gridSize="10" guides="1" tooltips="1" connect="1" arrows="1" fold="1" page="1" pageScale="1" pageWidth="827" pageHeight="1169" math="0" shadow="0">
      <root>
        <mxCell id="0" />
        <mxCell id="1" parent="0" />
        <mxCell id="9ZkA8qdvLlOUM7-y5ft3-1" value="AWS Cloud" style="points=[[0,0],[0.25,0],[0.5,0],[0.75,0],[1,0],[1,0.25],[1,0.5],[1,0.75],[1,1],[0.75,1],[0.5,1],[0.25,1],[0,1],[0,0.75],[0,0.5],[0,0.25]];outlineConnect=0;gradientColor=none;html=1;whiteSpace=wrap;fontSize=16;fontStyle=0;container=1;pointerEvents=0;collapsible=0;recursiveResize=0;shape=mxgraph.aws4.group;grIcon=mxgraph.aws4.group_aws_cloud_alt;strokeColor=#232F3E;fillColor=none;verticalAlign=top;align=left;spacingLeft=30;fontColor=#232F3E;dashed=0;strokeWidth=2;labelBackgroundColor=default;" vertex="1" parent="1">
          <mxGeometry x="110" y="550" width="760" height="540" as="geometry" />
        </mxCell>
        <mxCell id="9ZkA8qdvLlOUM7-y5ft3-22" value="" style="fillColor=none;strokeColor=#147EBA;verticalAlign=top;fontStyle=0;fontColor=#147EBA;whiteSpace=wrap;html=1;" vertex="1" parent="9ZkA8qdvLlOUM7-y5ft3-1">
          <mxGeometry x="70" y="80" width="440" height="410" as="geometry" />
        </mxCell>
        <mxCell id="9ZkA8qdvLlOUM7-y5ft3-12" value="" style="fillColor=#EFF0F3;strokeColor=none;dashed=0;verticalAlign=top;fontStyle=0;fontColor=#232F3D;whiteSpace=wrap;html=1;" vertex="1" parent="9ZkA8qdvLlOUM7-y5ft3-1">
          <mxGeometry x="190" y="120" width="290" height="110" as="geometry" />
        </mxCell>
        <mxCell id="9ZkA8qdvLlOUM7-y5ft3-5" value="Service" style="sketch=0;outlineConnect=0;fontColor=#232F3E;gradientColor=none;fillColor=#D45B07;strokeColor=none;dashed=0;verticalLabelPosition=bottom;verticalAlign=top;align=center;html=1;fontSize=16;fontStyle=0;aspect=fixed;pointerEvents=1;shape=mxgraph.aws4.ecs_service;" vertex="1" parent="9ZkA8qdvLlOUM7-y5ft3-1">
          <mxGeometry x="90" y="260" width="39" height="48" as="geometry" />
        </mxCell>
        <mxCell id="9ZkA8qdvLlOUM7-y5ft3-7" value="GuardDuty Agent" style="sketch=0;outlineConnect=0;fontColor=#232F3E;gradientColor=none;fillColor=#D45B07;strokeColor=none;dashed=0;verticalLabelPosition=bottom;verticalAlign=top;align=center;html=1;fontSize=16;fontStyle=0;aspect=fixed;pointerEvents=1;shape=mxgraph.aws4.container_1;" vertex="1" parent="9ZkA8qdvLlOUM7-y5ft3-1">
          <mxGeometry x="390" y="148.5" width="48" height="31" as="geometry" />
        </mxCell>
        <mxCell id="9ZkA8qdvLlOUM7-y5ft3-6" value="User Container" style="sketch=0;outlineConnect=0;fontColor=#232F3E;gradientColor=none;fillColor=#D45B07;strokeColor=none;dashed=0;verticalLabelPosition=bottom;verticalAlign=top;align=center;html=1;fontSize=16;fontStyle=0;aspect=fixed;pointerEvents=1;shape=mxgraph.aws4.container_1;" vertex="1" parent="9ZkA8qdvLlOUM7-y5ft3-1">
          <mxGeometry x="266" y="148.5" width="48" height="31" as="geometry" />
        </mxCell>
        <mxCell id="9ZkA8qdvLlOUM7-y5ft3-3" value="Task" style="sketch=0;outlineConnect=0;fontColor=#232F3E;gradientColor=none;fillColor=#D45B07;strokeColor=none;dashed=0;verticalLabelPosition=bottom;verticalAlign=top;align=center;html=1;fontSize=16;fontStyle=0;aspect=fixed;pointerEvents=1;shape=mxgraph.aws4.ecs_task;shadow=0;" vertex="1" parent="9ZkA8qdvLlOUM7-y5ft3-1">
          <mxGeometry x="170" y="140" width="37" height="48" as="geometry" />
        </mxCell>
        <mxCell id="9ZkA8qdvLlOUM7-y5ft3-13" value="" style="fillColor=#EFF0F3;strokeColor=none;dashed=0;verticalAlign=top;fontStyle=0;fontColor=#232F3D;whiteSpace=wrap;html=1;" vertex="1" parent="9ZkA8qdvLlOUM7-y5ft3-1">
          <mxGeometry x="190" y="240" width="290" height="110" as="geometry" />
        </mxCell>
        <mxCell id="9ZkA8qdvLlOUM7-y5ft3-26" style="edgeStyle=orthogonalEdgeStyle;rounded=0;orthogonalLoop=1;jettySize=auto;html=1;" edge="1" parent="9ZkA8qdvLlOUM7-y5ft3-1" source="9ZkA8qdvLlOUM7-y5ft3-14" target="9ZkA8qdvLlOUM7-y5ft3-25">
          <mxGeometry relative="1" as="geometry" />
        </mxCell>
        <mxCell id="9ZkA8qdvLlOUM7-y5ft3-27" value="検知" style="edgeLabel;html=1;align=center;verticalAlign=middle;resizable=0;points=[];fontSize=16;" vertex="1" connectable="0" parent="9ZkA8qdvLlOUM7-y5ft3-26">
          <mxGeometry x="-0.0472" relative="1" as="geometry">
            <mxPoint as="offset" />
          </mxGeometry>
        </mxCell>
        <mxCell id="9ZkA8qdvLlOUM7-y5ft3-14" value="GuardDuty Agent" style="sketch=0;outlineConnect=0;fontColor=#232F3E;gradientColor=none;fillColor=#D45B07;strokeColor=none;dashed=0;verticalLabelPosition=bottom;verticalAlign=top;align=center;html=1;fontSize=16;fontStyle=0;aspect=fixed;pointerEvents=1;shape=mxgraph.aws4.container_1;" vertex="1" parent="9ZkA8qdvLlOUM7-y5ft3-1">
          <mxGeometry x="390" y="268.5" width="48" height="31" as="geometry" />
        </mxCell>
        <mxCell id="9ZkA8qdvLlOUM7-y5ft3-15" value="User Container" style="sketch=0;outlineConnect=0;fontColor=#232F3E;gradientColor=none;fillColor=#D45B07;strokeColor=none;dashed=0;verticalLabelPosition=bottom;verticalAlign=top;align=center;html=1;fontSize=16;fontStyle=0;aspect=fixed;pointerEvents=1;shape=mxgraph.aws4.container_1;" vertex="1" parent="9ZkA8qdvLlOUM7-y5ft3-1">
          <mxGeometry x="266" y="268.5" width="48" height="31" as="geometry" />
        </mxCell>
        <mxCell id="9ZkA8qdvLlOUM7-y5ft3-16" value="Task" style="sketch=0;outlineConnect=0;fontColor=#232F3E;gradientColor=none;fillColor=#D45B07;strokeColor=none;dashed=0;verticalLabelPosition=bottom;verticalAlign=top;align=center;html=1;fontSize=16;fontStyle=0;aspect=fixed;pointerEvents=1;shape=mxgraph.aws4.ecs_task;shadow=0;" vertex="1" parent="9ZkA8qdvLlOUM7-y5ft3-1">
          <mxGeometry x="170" y="260" width="37" height="48" as="geometry" />
        </mxCell>
        <mxCell id="9ZkA8qdvLlOUM7-y5ft3-17" value="" style="fillColor=#EFF0F3;strokeColor=none;dashed=0;verticalAlign=top;fontStyle=0;fontColor=#232F3D;whiteSpace=wrap;html=1;" vertex="1" parent="9ZkA8qdvLlOUM7-y5ft3-1">
          <mxGeometry x="190" y="360" width="290" height="110" as="geometry" />
        </mxCell>
        <mxCell id="9ZkA8qdvLlOUM7-y5ft3-18" value="GuardDuty Agent" style="sketch=0;outlineConnect=0;fontColor=#232F3E;gradientColor=none;fillColor=#D45B07;strokeColor=none;dashed=0;verticalLabelPosition=bottom;verticalAlign=top;align=center;html=1;fontSize=16;fontStyle=0;aspect=fixed;pointerEvents=1;shape=mxgraph.aws4.container_1;" vertex="1" parent="9ZkA8qdvLlOUM7-y5ft3-1">
          <mxGeometry x="390" y="388.5" width="48" height="31" as="geometry" />
        </mxCell>
        <mxCell id="9ZkA8qdvLlOUM7-y5ft3-19" value="User Container" style="sketch=0;outlineConnect=0;fontColor=#232F3E;gradientColor=none;fillColor=#D45B07;strokeColor=none;dashed=0;verticalLabelPosition=bottom;verticalAlign=top;align=center;html=1;fontSize=16;fontStyle=0;aspect=fixed;pointerEvents=1;shape=mxgraph.aws4.container_1;" vertex="1" parent="9ZkA8qdvLlOUM7-y5ft3-1">
          <mxGeometry x="266" y="388.5" width="48" height="31" as="geometry" />
        </mxCell>
        <mxCell id="9ZkA8qdvLlOUM7-y5ft3-20" value="Task" style="sketch=0;outlineConnect=0;fontColor=#232F3E;gradientColor=none;fillColor=#D45B07;strokeColor=none;dashed=0;verticalLabelPosition=bottom;verticalAlign=top;align=center;html=1;fontSize=16;fontStyle=0;aspect=fixed;pointerEvents=1;shape=mxgraph.aws4.ecs_task;shadow=0;" vertex="1" parent="9ZkA8qdvLlOUM7-y5ft3-1">
          <mxGeometry x="170" y="380" width="37" height="48" as="geometry" />
        </mxCell>
        <mxCell id="9ZkA8qdvLlOUM7-y5ft3-2" value="ECS Cluster" style="sketch=0;points=[[0,0,0],[0.25,0,0],[0.5,0,0],[0.75,0,0],[1,0,0],[0,1,0],[0.25,1,0],[0.5,1,0],[0.75,1,0],[1,1,0],[0,0.25,0],[0,0.5,0],[0,0.75,0],[1,0.25,0],[1,0.5,0],[1,0.75,0]];outlineConnect=0;fontColor=#232F3E;gradientColor=#F78E04;gradientDirection=north;fillColor=#D05C17;strokeColor=#ffffff;dashed=0;verticalLabelPosition=bottom;verticalAlign=top;align=center;html=1;fontSize=16;fontStyle=0;aspect=fixed;shape=mxgraph.aws4.resourceIcon;resIcon=mxgraph.aws4.ecs;labelBackgroundColor=#FFFFFF;" vertex="1" parent="9ZkA8qdvLlOUM7-y5ft3-1">
          <mxGeometry x="50" y="60" width="50" height="50" as="geometry" />
        </mxCell>
        <mxCell id="9ZkA8qdvLlOUM7-y5ft3-24" value="GuardDuty" style="sketch=0;points=[[0,0,0],[0.25,0,0],[0.5,0,0],[0.75,0,0],[1,0,0],[0,1,0],[0.25,1,0],[0.5,1,0],[0.75,1,0],[1,1,0],[0,0.25,0],[0,0.5,0],[0,0.75,0],[1,0.25,0],[1,0.5,0],[1,0.75,0]];outlineConnect=0;fontColor=#232F3E;gradientColor=#F54749;gradientDirection=north;fillColor=#C7131F;strokeColor=#ffffff;dashed=0;verticalLabelPosition=bottom;verticalAlign=top;align=center;html=1;fontSize=16;fontStyle=0;aspect=fixed;shape=mxgraph.aws4.resourceIcon;resIcon=mxgraph.aws4.guardduty;" vertex="1" parent="9ZkA8qdvLlOUM7-y5ft3-1">
          <mxGeometry x="570" y="188" width="55" height="55" as="geometry" />
        </mxCell>
        <mxCell id="9ZkA8qdvLlOUM7-y5ft3-25" value="Findings" style="sketch=0;outlineConnect=0;fontColor=#232F3E;gradientColor=none;fillColor=#BF0816;strokeColor=none;dashed=0;verticalLabelPosition=bottom;verticalAlign=top;align=center;html=1;fontSize=16;fontStyle=0;aspect=fixed;pointerEvents=1;shape=mxgraph.aws4.finding;" vertex="1" parent="9ZkA8qdvLlOUM7-y5ft3-1">
          <mxGeometry x="650" y="253.33" width="55" height="61.33" as="geometry" />
        </mxCell>
        <mxCell id="9ZkA8qdvLlOUM7-y5ft3-28" value="ランタイムモニタリングを設定したECSクラスター配下の全Taskに、自動的にGuardDuty AgentがSidecarとして起動し、GuardDutyへの脅威検知を行う" style="shape=callout;whiteSpace=wrap;html=1;perimeter=calloutPerimeter;strokeWidth=2;align=left;fontSize=16;" vertex="1" parent="9ZkA8qdvLlOUM7-y5ft3-1">
          <mxGeometry x="274" y="8.5" width="296" height="140" as="geometry" />
        </mxCell>
      </root>
    </mxGraphModel>
  </diagram>
</mxfile>
